<svg width="12" height="14" viewBox="0 0 12 14" fill="none" xmlns="http://www.w3.org/2000/svg">
<path fill-rule="evenodd" clip-rule="evenodd" d="M2.28772 2.5C2.28772 1.67157 2.95929 1 3.78772 1H7.78772C8.61615 1 9.28772 1.67157 9.28772 2.5V6.5H10.2877V2.5C10.2877 1.11929 9.16843 0 7.78772 0H3.78772C2.40701 0 1.28772 1.11929 1.28772 2.5V6.5H2.28772V2.5ZM1.503 6.99988C0.108303 6.99988 -0.531464 8.73683 0.530023 9.6415L2.59234 11.3992C2.7038 11.4942 2.76801 11.6332 2.76801 11.7797V12.4999C2.76801 13.3283 3.43959 13.9999 4.26801 13.9999H7.30801C8.13644 13.9999 8.80801 13.3283 8.80801 12.4999V11.7797C8.80801 11.6332 8.87222 11.4942 8.98368 11.3992L11.046 9.64151C12.1075 8.73683 11.4677 6.99988 10.073 6.99988H1.503ZM1.17867 8.88042C0.824847 8.57886 1.0381 7.99988 1.503 7.99988H10.073C10.5379 7.99988 10.7512 8.57886 10.3973 8.88042L8.33503 10.6381C8.00064 10.9231 7.80801 11.3403 7.80801 11.7797V12.4999C7.80801 12.776 7.58415 12.9999 7.30801 12.9999H4.26801C3.99187 12.9999 3.76801 12.776 3.76801 12.4999V11.7797C3.76801 11.3403 3.57538 10.9231 3.24099 10.6381L1.17867 8.88042Z" fill="#006155"/>
</svg>
