<svg width="16" height="14" viewBox="0 0 16 14" fill="none" xmlns="http://www.w3.org/2000/svg">
<path fill-rule="evenodd" clip-rule="evenodd" d="M2.99949 1.49976H12.9995C13.5518 1.49976 13.9995 1.94747 13.9995 2.49976V3.76687C13.7056 3.59719 13.3646 3.5001 13.0008 3.5001H9.50085C8.90313 3.5001 8.36666 3.7623 8.00017 4.17795C7.63368 3.7623 7.09721 3.5001 6.49949 3.5001H2.99949C2.6352 3.5001 2.29366 3.59749 1.99949 3.76766V2.49976C1.99949 1.94747 2.44721 1.49976 2.99949 1.49976ZM13.9995 5.44753V6.49976H8.50085V5.5001C8.50085 4.94781 8.94856 4.5001 9.50085 4.5001H13.0008C13.5355 4.5001 13.9722 4.91968 13.9995 5.44753ZM15.0008 6.76849C15.5982 7.11442 16 7.7605 16 8.50043V11.5004H15.9998V13.0003C15.9998 13.2764 15.776 13.5003 15.4998 13.5003C15.2237 13.5003 14.9998 13.2764 14.9998 13.0003V11.5004H1V13.0003C1 13.2764 0.776142 13.5003 0.5 13.5003C0.223858 13.5003 0 13.2764 0 13.0003V11.5004V11.0003V8.50043C0 7.76036 0.40197 7.11418 0.99949 6.76829V5.5001V2.49976C0.99949 1.39519 1.89492 0.499756 2.99949 0.499756H12.9995C14.1041 0.499756 14.9995 1.39519 14.9995 2.49976V5.4257C15.0004 5.45039 15.0008 5.47519 15.0008 5.5001V6.76849ZM7.49949 5.5001V6.49976H1.99949V5.5001C1.99949 4.94781 2.44721 4.5001 2.99949 4.5001H6.49949C7.05177 4.5001 7.49949 4.94781 7.49949 5.5001ZM2 7.50044H14C14.5523 7.50044 15 7.94815 15 8.50043V10.5004H1V8.50043C1 7.94815 1.44772 7.50044 2 7.50044Z" fill="#006155"/>
</svg>
