<svg width="15" height="14" viewBox="0 0 15 14" fill="none" xmlns="http://www.w3.org/2000/svg">
<path fill-rule="evenodd" clip-rule="evenodd" d="M2.57629 0.999268H12.5763C13.1286 0.999268 13.5763 1.44698 13.5763 1.99927V11.9993C13.5763 12.5516 13.1286 12.9993 12.5763 12.9993H7.57617V8.00049C7.57617 7.4482 7.12846 7.00049 6.57617 7.00049H1.57629V1.99927C1.57629 1.44698 2.02401 0.999268 2.57629 0.999268ZM6.57617 12.9993H2.57629C2.02401 12.9993 1.57629 12.5516 1.57629 11.9993V8.00049H6.57617V12.9993ZM0.57629 7.98494V1.99927C0.57629 0.894698 1.47172 -0.000732422 2.57629 -0.000732422H12.5763C13.6809 -0.000732422 14.5763 0.894698 14.5763 1.99927V11.9993C14.5763 13.1038 13.6809 13.9993 12.5763 13.9993H6.626C6.60949 14.0001 6.59288 14.0005 6.57617 14.0005H2.57617C1.4716 14.0005 0.576172 13.1051 0.576172 12.0005V8.00049C0.576172 7.9953 0.576211 7.99012 0.57629 7.98494Z" fill="#006155"/>
</svg>
